<svg xmlns="http://www.w3.org/2000/svg" viewBox="0 0 512 512">
  <!--
    Halite logo — lowercase "h" built from rounded-square pixels in flat
    Plex amber. The 13-cell glyph sits on a 4-col × 7-row pixel lattice;
    each cell is 48×48 with 8u gaps. Scattered translucent "grain" pixels
    fade out around the negative space.

    Grid origin: (148, 64). Cell stride: 56 (48 + 8 gap).
  -->
  <g id="icon" fill="#e5a00d">
    <!-- Ascender — left column, all 7 rows -->
    <rect x="148" y="64"  width="48" height="48" rx="12"/>
    <rect x="148" y="120" width="48" height="48" rx="12"/>
    <rect x="148" y="176" width="48" height="48" rx="12"/>
    <rect x="148" y="232" width="48" height="48" rx="12"/>
    <rect x="148" y="288" width="48" height="48" rx="12"/>
    <rect x="148" y="344" width="48" height="48" rx="12"/>
    <rect x="148" y="400" width="48" height="48" rx="12"/>

    <!-- Shoulder — top of the arch, row 3, cols 1-3 -->
    <rect x="204" y="232" width="48" height="48" rx="12"/>
    <rect x="260" y="232" width="48" height="48" rx="12"/>
    <rect x="316" y="232" width="48" height="48" rx="12"/>

    <!-- Right leg — column 3, rows 4-6 -->
    <rect x="316" y="288" width="48" height="48" rx="12"/>
    <rect x="316" y="344" width="48" height="48" rx="12"/>
    <rect x="316" y="400" width="48" height="48" rx="12"/>
  </g>

  <!--
    Scattered "grain" pixels — same amber, lower opacity, smaller size.
    Positioned strictly OUTSIDE the h's bbox (x:148-364, y:64-448) so the
    letterform stays clean and the dust reads as halo, not noise.
  -->
  <g id="grains" fill="#e5a00d">
    <rect x="56"  y="92"  width="24" height="24" rx="6" fill-opacity="0.55"/>
    <rect x="20"  y="220" width="20" height="20" rx="5" fill-opacity="0.4"/>
    <rect x="76"  y="392" width="22" height="22" rx="6" fill-opacity="0.5"/>
    <rect x="32"  y="468" width="18" height="18" rx="5" fill-opacity="0.4"/>
    <rect x="424" y="88"  width="22" height="22" rx="6" fill-opacity="0.5"/>
    <rect x="484" y="168" width="18" height="18" rx="5" fill-opacity="0.4"/>
    <rect x="400" y="296" width="24" height="24" rx="6" fill-opacity="0.6"/>
    <rect x="452" y="408" width="22" height="22" rx="6" fill-opacity="0.5"/>
    <rect x="412" y="470" width="18" height="18" rx="5" fill-opacity="0.4"/>
  </g>
</svg>
